<mxfile host="app.diagrams.net" modified="2024-05-17T05:47:38.248Z" agent="Mozilla/5.0 (Windows NT 10.0; Win64; x64) AppleWebKit/537.36 (KHTML, like Gecko) Chrome/124.0.0.0 Safari/537.36 Edg/124.0.0.0" etag="m-MI7fRIjxo-8ogSoC8z" version="24.4.3" type="github">
  <diagram name="第 1 页" id="mFvYVYBdOBAWxCCfj9we">
    <mxGraphModel dx="1852" dy="1890" grid="1" gridSize="10" guides="1" tooltips="1" connect="1" arrows="1" fold="1" page="1" pageScale="1" pageWidth="827" pageHeight="1169" math="0" shadow="0">
      <root>
        <mxCell id="0" />
        <mxCell id="1" parent="0" />
        <mxCell id="T_mzTJdJXSnXTdOw46OB-30" style="edgeStyle=orthogonalEdgeStyle;rounded=0;orthogonalLoop=1;jettySize=auto;html=1;exitX=0.5;exitY=1;exitDx=0;exitDy=0;" parent="1" source="T_mzTJdJXSnXTdOw46OB-1" target="T_mzTJdJXSnXTdOw46OB-6" edge="1">
          <mxGeometry relative="1" as="geometry" />
        </mxCell>
        <mxCell id="T_mzTJdJXSnXTdOw46OB-1" value="空格_按下" style="rounded=1;whiteSpace=wrap;html=1;" parent="1" vertex="1">
          <mxGeometry x="110" y="60" width="120" height="60" as="geometry" />
        </mxCell>
        <mxCell id="T_mzTJdJXSnXTdOw46OB-2" value="空格_松开" style="rounded=1;whiteSpace=wrap;html=1;" parent="1" vertex="1">
          <mxGeometry x="260" y="60" width="120" height="60" as="geometry" />
        </mxCell>
        <mxCell id="T_mzTJdJXSnXTdOw46OB-3" value="W/A/S/D_按下" style="rounded=1;whiteSpace=wrap;html=1;" parent="1" vertex="1">
          <mxGeometry x="420" y="60" width="120" height="60" as="geometry" />
        </mxCell>
        <mxCell id="T_mzTJdJXSnXTdOw46OB-4" value="左键_按下" style="rounded=1;whiteSpace=wrap;html=1;" parent="1" vertex="1">
          <mxGeometry x="580" y="60" width="120" height="60" as="geometry" />
        </mxCell>
        <mxCell id="T_mzTJdJXSnXTdOw46OB-6" value="跳跃" style="rounded=0;whiteSpace=wrap;html=1;" parent="1" vertex="1">
          <mxGeometry x="110" y="200" width="120" height="60" as="geometry" />
        </mxCell>
        <mxCell id="T_mzTJdJXSnXTdOw46OB-7" value="空格_松开" style="rounded=1;whiteSpace=wrap;html=1;" parent="1" vertex="1">
          <mxGeometry x="110" y="320" width="120" height="60" as="geometry" />
        </mxCell>
        <mxCell id="T_mzTJdJXSnXTdOw46OB-8" value="" style="endArrow=none;html=1;rounded=0;entryX=0.5;entryY=1;entryDx=0;entryDy=0;exitX=0.5;exitY=0;exitDx=0;exitDy=0;" parent="1" source="T_mzTJdJXSnXTdOw46OB-7" target="T_mzTJdJXSnXTdOw46OB-6" edge="1">
          <mxGeometry width="50" height="50" relative="1" as="geometry">
            <mxPoint x="390" y="400" as="sourcePoint" />
            <mxPoint x="440" y="350" as="targetPoint" />
          </mxGeometry>
        </mxCell>
        <mxCell id="T_mzTJdJXSnXTdOw46OB-9" value="左键_按下" style="rounded=1;whiteSpace=wrap;html=1;" parent="1" vertex="1">
          <mxGeometry x="550" y="320" width="120" height="60" as="geometry" />
        </mxCell>
        <mxCell id="T_mzTJdJXSnXTdOw46OB-10" value="" style="endArrow=none;html=1;rounded=0;exitX=1;exitY=0.5;exitDx=0;exitDy=0;entryX=0;entryY=0.5;entryDx=0;entryDy=0;" parent="1" source="T_mzTJdJXSnXTdOw46OB-7" target="T_mzTJdJXSnXTdOw46OB-9" edge="1">
          <mxGeometry width="50" height="50" relative="1" as="geometry">
            <mxPoint x="390" y="400" as="sourcePoint" />
            <mxPoint x="440" y="350" as="targetPoint" />
          </mxGeometry>
        </mxCell>
        <mxCell id="T_mzTJdJXSnXTdOw46OB-13" value="与地面距离 &amp;gt;0" style="rhombus;whiteSpace=wrap;html=1;" parent="1" vertex="1">
          <mxGeometry x="555" y="420" width="110" height="80" as="geometry" />
        </mxCell>
        <mxCell id="T_mzTJdJXSnXTdOw46OB-14" value="" style="endArrow=none;html=1;rounded=0;entryX=0.5;entryY=1;entryDx=0;entryDy=0;exitX=0.5;exitY=0;exitDx=0;exitDy=0;" parent="1" source="T_mzTJdJXSnXTdOw46OB-13" target="T_mzTJdJXSnXTdOw46OB-9" edge="1">
          <mxGeometry width="50" height="50" relative="1" as="geometry">
            <mxPoint x="700" y="450" as="sourcePoint" />
            <mxPoint x="750" y="400" as="targetPoint" />
          </mxGeometry>
        </mxCell>
        <mxCell id="T_mzTJdJXSnXTdOw46OB-15" value="" style="endArrow=none;html=1;rounded=0;exitX=0;exitY=1;exitDx=0;exitDy=0;entryX=0.5;entryY=0;entryDx=0;entryDy=0;" parent="1" source="T_mzTJdJXSnXTdOw46OB-13" target="T_mzTJdJXSnXTdOw46OB-19" edge="1">
          <mxGeometry width="50" height="50" relative="1" as="geometry">
            <mxPoint x="630" y="500" as="sourcePoint" />
            <mxPoint x="580" y="570" as="targetPoint" />
          </mxGeometry>
        </mxCell>
        <mxCell id="T_mzTJdJXSnXTdOw46OB-16" value="是" style="edgeLabel;html=1;align=center;verticalAlign=middle;resizable=0;points=[];" parent="T_mzTJdJXSnXTdOw46OB-15" vertex="1" connectable="0">
          <mxGeometry x="0.0267" relative="1" as="geometry">
            <mxPoint as="offset" />
          </mxGeometry>
        </mxCell>
        <mxCell id="T_mzTJdJXSnXTdOw46OB-17" value="" style="endArrow=none;html=1;rounded=0;exitX=1;exitY=1;exitDx=0;exitDy=0;entryX=0.5;entryY=0;entryDx=0;entryDy=0;" parent="1" source="T_mzTJdJXSnXTdOw46OB-13" target="T_mzTJdJXSnXTdOw46OB-59" edge="1">
          <mxGeometry width="50" height="50" relative="1" as="geometry">
            <mxPoint x="593" y="490" as="sourcePoint" />
            <mxPoint x="638" y="560" as="targetPoint" />
          </mxGeometry>
        </mxCell>
        <mxCell id="T_mzTJdJXSnXTdOw46OB-18" value="否" style="edgeLabel;html=1;align=center;verticalAlign=middle;resizable=0;points=[];" parent="T_mzTJdJXSnXTdOw46OB-17" vertex="1" connectable="0">
          <mxGeometry x="0.0267" relative="1" as="geometry">
            <mxPoint as="offset" />
          </mxGeometry>
        </mxCell>
        <mxCell id="T_mzTJdJXSnXTdOw46OB-19" value="视角向下" style="rhombus;whiteSpace=wrap;html=1;" parent="1" vertex="1">
          <mxGeometry x="530" y="570" width="110" height="80" as="geometry" />
        </mxCell>
        <mxCell id="T_mzTJdJXSnXTdOw46OB-20" value="" style="endArrow=none;html=1;rounded=0;entryX=0.45;entryY=0.044;entryDx=0;entryDy=0;exitX=0;exitY=1;exitDx=0;exitDy=0;entryPerimeter=0;" parent="1" source="T_mzTJdJXSnXTdOw46OB-19" target="T_mzTJdJXSnXTdOw46OB-23" edge="1">
          <mxGeometry width="50" height="50" relative="1" as="geometry">
            <mxPoint x="555" y="640" as="sourcePoint" />
            <mxPoint x="557" y="710" as="targetPoint" />
          </mxGeometry>
        </mxCell>
        <mxCell id="T_mzTJdJXSnXTdOw46OB-21" value="是" style="edgeLabel;html=1;align=center;verticalAlign=middle;resizable=0;points=[];" parent="T_mzTJdJXSnXTdOw46OB-20" vertex="1" connectable="0">
          <mxGeometry x="0.0267" relative="1" as="geometry">
            <mxPoint as="offset" />
          </mxGeometry>
        </mxCell>
        <mxCell id="T_mzTJdJXSnXTdOw46OB-23" value="霞弹跳" style="rounded=0;whiteSpace=wrap;html=1;" parent="1" vertex="1">
          <mxGeometry x="510" y="885" width="120" height="60" as="geometry" />
        </mxCell>
        <mxCell id="T_mzTJdJXSnXTdOw46OB-25" value="" style="endArrow=none;html=1;rounded=0;entryX=0.5;entryY=1;entryDx=0;entryDy=0;exitX=0.5;exitY=0;exitDx=0;exitDy=0;" parent="1" source="T_mzTJdJXSnXTdOw46OB-61" target="T_mzTJdJXSnXTdOw46OB-7" edge="1">
          <mxGeometry width="50" height="50" relative="1" as="geometry">
            <mxPoint x="390" y="420" as="sourcePoint" />
            <mxPoint x="170" y="470" as="targetPoint" />
          </mxGeometry>
        </mxCell>
        <mxCell id="T_mzTJdJXSnXTdOw46OB-35" value="与地面距离 &amp;gt;0" style="rhombus;whiteSpace=wrap;html=1;" parent="1" vertex="1">
          <mxGeometry x="115" y="615" width="110" height="80" as="geometry" />
        </mxCell>
        <mxCell id="T_mzTJdJXSnXTdOw46OB-38" value="" style="endArrow=none;html=1;rounded=0;exitX=1;exitY=1;exitDx=0;exitDy=0;entryX=0;entryY=0.5;entryDx=0;entryDy=0;" parent="1" source="T_mzTJdJXSnXTdOw46OB-35" target="T_mzTJdJXSnXTdOw46OB-49" edge="1">
          <mxGeometry width="50" height="50" relative="1" as="geometry">
            <mxPoint x="153" y="685" as="sourcePoint" />
            <mxPoint x="280" y="675" as="targetPoint" />
          </mxGeometry>
        </mxCell>
        <mxCell id="T_mzTJdJXSnXTdOw46OB-39" value="否" style="edgeLabel;html=1;align=center;verticalAlign=middle;resizable=0;points=[];" parent="T_mzTJdJXSnXTdOw46OB-38" vertex="1" connectable="0">
          <mxGeometry x="0.0267" relative="1" as="geometry">
            <mxPoint as="offset" />
          </mxGeometry>
        </mxCell>
        <mxCell id="T_mzTJdJXSnXTdOw46OB-40" value="WASD_松开" style="rhombus;whiteSpace=wrap;html=1;" parent="1" vertex="1">
          <mxGeometry x="90" y="765" width="110" height="80" as="geometry" />
        </mxCell>
        <mxCell id="T_mzTJdJXSnXTdOw46OB-41" value="" style="endArrow=none;html=1;rounded=0;exitX=0;exitY=1;exitDx=0;exitDy=0;entryX=0.5;entryY=0;entryDx=0;entryDy=0;" parent="1" source="T_mzTJdJXSnXTdOw46OB-40" target="T_mzTJdJXSnXTdOw46OB-47" edge="1">
          <mxGeometry width="50" height="50" relative="1" as="geometry">
            <mxPoint x="145" y="845" as="sourcePoint" />
            <mxPoint x="110" y="895" as="targetPoint" />
          </mxGeometry>
        </mxCell>
        <mxCell id="T_mzTJdJXSnXTdOw46OB-42" value="是" style="edgeLabel;html=1;align=center;verticalAlign=middle;resizable=0;points=[];" parent="T_mzTJdJXSnXTdOw46OB-41" vertex="1" connectable="0">
          <mxGeometry x="0.0267" relative="1" as="geometry">
            <mxPoint as="offset" />
          </mxGeometry>
        </mxCell>
        <mxCell id="T_mzTJdJXSnXTdOw46OB-43" value="" style="endArrow=none;html=1;rounded=0;exitX=1;exitY=1;exitDx=0;exitDy=0;entryX=0.5;entryY=0;entryDx=0;entryDy=0;" parent="1" source="T_mzTJdJXSnXTdOw46OB-40" target="T_mzTJdJXSnXTdOw46OB-48" edge="1">
          <mxGeometry width="50" height="50" relative="1" as="geometry">
            <mxPoint x="108" y="835" as="sourcePoint" />
            <mxPoint x="240" y="885" as="targetPoint" />
          </mxGeometry>
        </mxCell>
        <mxCell id="T_mzTJdJXSnXTdOw46OB-44" value="否" style="edgeLabel;html=1;align=center;verticalAlign=middle;resizable=0;points=[];" parent="T_mzTJdJXSnXTdOw46OB-43" vertex="1" connectable="0">
          <mxGeometry x="0.0267" relative="1" as="geometry">
            <mxPoint as="offset" />
          </mxGeometry>
        </mxCell>
        <mxCell id="T_mzTJdJXSnXTdOw46OB-45" value="" style="endArrow=none;html=1;rounded=0;exitX=0;exitY=1;exitDx=0;exitDy=0;entryX=0.5;entryY=0;entryDx=0;entryDy=0;" parent="1" source="T_mzTJdJXSnXTdOw46OB-35" target="T_mzTJdJXSnXTdOw46OB-40" edge="1">
          <mxGeometry width="50" height="50" relative="1" as="geometry">
            <mxPoint x="108" y="835" as="sourcePoint" />
            <mxPoint x="110" y="925" as="targetPoint" />
          </mxGeometry>
        </mxCell>
        <mxCell id="T_mzTJdJXSnXTdOw46OB-46" value="是" style="edgeLabel;html=1;align=center;verticalAlign=middle;resizable=0;points=[];" parent="T_mzTJdJXSnXTdOw46OB-45" vertex="1" connectable="0">
          <mxGeometry x="0.0267" relative="1" as="geometry">
            <mxPoint as="offset" />
          </mxGeometry>
        </mxCell>
        <mxCell id="T_mzTJdJXSnXTdOw46OB-47" value="下砸" style="rounded=0;whiteSpace=wrap;html=1;" parent="1" vertex="1">
          <mxGeometry y="885" width="120" height="60" as="geometry" />
        </mxCell>
        <mxCell id="T_mzTJdJXSnXTdOw46OB-48" value="冲刺" style="rounded=0;whiteSpace=wrap;html=1;" parent="1" vertex="1">
          <mxGeometry x="170" y="885" width="120" height="60" as="geometry" />
        </mxCell>
        <mxCell id="T_mzTJdJXSnXTdOw46OB-51" style="edgeStyle=orthogonalEdgeStyle;rounded=0;orthogonalLoop=1;jettySize=auto;html=1;exitX=1;exitY=1;exitDx=0;exitDy=0;entryX=0.5;entryY=0;entryDx=0;entryDy=0;" parent="1" source="T_mzTJdJXSnXTdOw46OB-49" target="T_mzTJdJXSnXTdOw46OB-53" edge="1">
          <mxGeometry relative="1" as="geometry">
            <mxPoint x="373" y="775" as="targetPoint" />
          </mxGeometry>
        </mxCell>
        <mxCell id="T_mzTJdJXSnXTdOw46OB-49" value="落地时间&amp;lt;0.2s" style="rhombus;whiteSpace=wrap;html=1;" parent="1" vertex="1">
          <mxGeometry x="330" y="640" width="110" height="80" as="geometry" />
        </mxCell>
        <mxCell id="T_mzTJdJXSnXTdOw46OB-71" style="edgeStyle=orthogonalEdgeStyle;rounded=0;orthogonalLoop=1;jettySize=auto;html=1;exitX=0.5;exitY=1;exitDx=0;exitDy=0;" parent="1" source="T_mzTJdJXSnXTdOw46OB-53" edge="1">
          <mxGeometry relative="1" as="geometry">
            <mxPoint x="170" y="470" as="targetPoint" />
            <Array as="points">
              <mxPoint x="414" y="1140" />
              <mxPoint x="-20" y="1140" />
            </Array>
          </mxGeometry>
        </mxCell>
        <mxCell id="T_mzTJdJXSnXTdOw46OB-53" value="连跳" style="rounded=0;whiteSpace=wrap;html=1;" parent="1" vertex="1">
          <mxGeometry x="354" y="885" width="120" height="60" as="geometry" />
        </mxCell>
        <mxCell id="T_mzTJdJXSnXTdOw46OB-55" value="空格_按下" style="rounded=1;whiteSpace=wrap;html=1;" parent="1" vertex="1">
          <mxGeometry x="115" y="-130" width="120" height="60" as="geometry" />
        </mxCell>
        <mxCell id="T_mzTJdJXSnXTdOw46OB-56" value="空格_松开" style="rounded=1;whiteSpace=wrap;html=1;" parent="1" vertex="1">
          <mxGeometry x="265" y="-130" width="120" height="60" as="geometry" />
        </mxCell>
        <mxCell id="T_mzTJdJXSnXTdOw46OB-57" value="W/A/S/D_按下" style="rounded=1;whiteSpace=wrap;html=1;" parent="1" vertex="1">
          <mxGeometry x="425" y="-130" width="120" height="60" as="geometry" />
        </mxCell>
        <mxCell id="T_mzTJdJXSnXTdOw46OB-58" value="左键_按下" style="rounded=1;whiteSpace=wrap;html=1;" parent="1" vertex="1">
          <mxGeometry x="585" y="-130" width="120" height="60" as="geometry" />
        </mxCell>
        <mxCell id="T_mzTJdJXSnXTdOw46OB-59" value="射击" style="rounded=0;whiteSpace=wrap;html=1;" parent="1" vertex="1">
          <mxGeometry x="665" y="555" width="120" height="60" as="geometry" />
        </mxCell>
        <mxCell id="T_mzTJdJXSnXTdOw46OB-62" value="" style="endArrow=none;html=1;rounded=0;entryX=0.5;entryY=1;entryDx=0;entryDy=0;exitX=0.5;exitY=0;exitDx=0;exitDy=0;" parent="1" source="T_mzTJdJXSnXTdOw46OB-35" target="T_mzTJdJXSnXTdOw46OB-61" edge="1">
          <mxGeometry width="50" height="50" relative="1" as="geometry">
            <mxPoint x="170" y="615" as="sourcePoint" />
            <mxPoint x="170" y="470" as="targetPoint" />
          </mxGeometry>
        </mxCell>
        <mxCell id="T_mzTJdJXSnXTdOw46OB-61" value="空格_按下" style="rounded=1;whiteSpace=wrap;html=1;" parent="1" vertex="1">
          <mxGeometry x="110" y="510" width="120" height="60" as="geometry" />
        </mxCell>
        <mxCell id="T_mzTJdJXSnXTdOw46OB-72" value="" style="endArrow=none;html=1;rounded=0;entryX=0.5;entryY=1;entryDx=0;entryDy=0;" parent="1" target="T_mzTJdJXSnXTdOw46OB-23" edge="1">
          <mxGeometry width="50" height="50" relative="1" as="geometry">
            <mxPoint x="410" y="1140" as="sourcePoint" />
            <mxPoint x="490" y="790" as="targetPoint" />
            <Array as="points">
              <mxPoint x="570" y="1140" />
            </Array>
          </mxGeometry>
        </mxCell>
      </root>
    </mxGraphModel>
  </diagram>
</mxfile>
